<svg xmlns="http://www.w3.org/2000/svg" width="18" height="17.554" viewBox="0 0 18 17.554"><path d="M9,.3A9,9,0,0,0,6.154,17.836c.45.085.615-.193.615-.433,0-.214-.008-.78-.011-1.53-2.5.543-3.032-1.208-3.032-1.208a2.385,2.385,0,0,0-1-1.316c-.815-.558.063-.547.063-.547a1.887,1.887,0,0,1,1.379.927,1.918,1.918,0,0,0,2.621.748,1.919,1.919,0,0,1,.57-1.2c-2-.225-4.1-1-4.1-4.448a3.472,3.472,0,0,1,.926-2.415A3.2,3.2,0,0,1,4.263,4.03s.754-.242,2.475.922a8.485,8.485,0,0,1,4.5,0C12.948,3.788,13.7,4.03,13.7,4.03a3.288,3.288,0,0,1,.09,2.382,3.486,3.486,0,0,1,.922,2.415c0,3.458-2.1,4.219-4.106,4.44a2.155,2.155,0,0,1,.608,1.665c0,1.2-.011,2.172-.011,2.464,0,.236.158.518.619.427A8.989,8.989,0,0,0,9,.3" transform="translate(0 -0.297)" fill="#000000"/></svg>