<svg id="Layer_1" data-name="Layer 1" xmlns="http://www.w3.org/2000/svg" viewBox="0 0 141.73 141.73"><defs><style>.cls-1{fill:#8e8e8e;}.cls-2{fill:#ababab;}.cls-3{fill:#bebebe;}.cls-4{fill:#fff;}.cls-5{fill:#787878;}.cls-6{fill:#575757;}</style></defs><title>grey</title><path class="cls-1" d="M9.4,94.64v12h9v-12h3v15h-15v-15Z"/><path class="cls-1" d="M42.48,109.67v-6l-6-9h3.76L44,99.9l3.8-5.26H51.5l-6,9v6Z"/><path class="cls-1" d="M69.54,94.64v12h9v-12h3v15h-15v-15Z"/><path class="cls-1" d="M96.6,109.67v-15h3l9,10.66V94.64h3v15h-3l-9-10.34v10.34Z"/><path class="cls-1" d="M135.7,94.64v15h-3v-15Z"/><polygon class="cls-2" points="79.26 39.55 79.26 32.06 63.11 32.06 63.11 45.67 79.26 39.55"/><polygon class="cls-3" points="63.11 32.06 60.15 32.06 49.26 50.93 63.11 45.67 63.11 32.06"/><polygon class="cls-4" points="63.11 59.64 63.11 59.64 63.11 59.64 63.11 59.64"/><polygon class="cls-5" points="85 37.37 81.94 32.06 79.26 32.06 79.26 39.55 85 37.37"/><polygon class="cls-2" points="63.11 45.67 49.26 50.93 63.11 59.64 63.11 45.67"/><polygon class="cls-1" points="63.11 59.64 63.11 59.64 79.26 59.64 79.26 39.55 63.11 45.67 63.11 59.64"/><polygon class="cls-6" points="85 37.37 79.26 39.55 79.26 59.64 87.8 59.64 92.83 50.93 85 37.37"/><polygon class="cls-5" points="79.26 69.8 81.94 69.8 87.8 59.64 79.26 59.64 79.26 69.8"/><polygon class="cls-6" points="63.11 59.64 79.26 69.8 79.26 59.64 63.11 59.64"/><polygon class="cls-5" points="63.11 59.64 63.11 69.8 79.26 69.8 63.11 59.64 63.11 59.64"/><polygon class="cls-1" points="63.11 59.64 49.26 50.93 60.15 69.8 63.11 69.8 63.11 59.64 63.11 59.64"/></svg>