<svg xmlns="http://www.w3.org/2000/svg" xmlns:xlink="http://www.w3.org/1999/xlink" width="542.544" height="374.576" viewBox="0 0 542.544 374.576"><defs><clipPath id="a"><path d="M1187.4,586.572l39.735,57.771a70.161,70.161,0,0,1-61.8,8.782c-36.51-12.106-56.592-52.11-44.486-88.619a70.352,70.352,0,0,1,78.748-46.98Z" transform="translate(-1117.319 -516.462)" fill="none" stroke="gray" stroke-miterlimit="10" stroke-width="1"/></clipPath><linearGradient id="b" y1="0.5" x2="1" y2="0.5" gradientUnits="objectBoundingBox"><stop offset="0" stop-color="#25bbbf"/><stop offset="0.999" stop-color="#1d9191"/></linearGradient><linearGradient id="g" x1="0.959" y1="0.498" x2="-0.041" y2="0.503" gradientUnits="objectBoundingBox"><stop offset="0" stop-color="#25bbbf"/><stop offset="0.275" stop-color="#23b5b9"/><stop offset="0.636" stop-color="#21a6a8"/><stop offset="0.999" stop-color="#1d9191"/></linearGradient><linearGradient id="k" x1="0.9" y1="0.504" x2="-0.1" y2="0.494" xlink:href="#g"/></defs><g transform="translate(-812.012 -459.645)"><path d="M1089.7,671.449l-8.223-1.922,5.209,6.647,3.014-4.725-8.223-1.922,5.209,6.647Z" transform="translate(71.801 55.735)" fill="gray"/><path d="M1083.762,620.283a42.343,42.343,0,1,1,2.043,67.963" transform="translate(72.409 40.162)" fill="none" stroke="gray" stroke-miterlimit="10" stroke-width="0.721"/><circle cx="5.295" cy="5.295" r="5.295" transform="translate(914.557 469.15)" fill="gray"/><circle cx="5.99" cy="5.99" r="5.99" transform="translate(1133.537 693.761)" fill="gray"/><g transform="translate(1198.246 531.354)"><path d="M1187.054,586.571l39.734,57.771a70.162,70.162,0,0,1-61.8,8.783c-36.51-12.106-56.592-52.111-44.486-88.621a70.354,70.354,0,0,1,78.748-46.98Z" transform="translate(-1116.974 -516.461)" fill="none" stroke="gray" stroke-miterlimit="10" stroke-width="1"/><g transform="translate(0.437 0.001)"><g clip-path="url(#a)"><line x2="108.924" transform="translate(0.306 140.08)" fill="none" stroke="gray" stroke-miterlimit="10" stroke-width="1"/><g transform="translate(-10.149 5.367)"><line x2="108.924" transform="translate(10.456 127.623)" fill="none" stroke="gray" stroke-miterlimit="10" stroke-width="0.25"/><line x2="108.924" transform="translate(10.456 120.532)" fill="none" stroke="gray" stroke-miterlimit="10" stroke-width="0.25"/><line x2="108.924" transform="translate(10.456 113.442)" fill="none" stroke="gray" stroke-miterlimit="10" stroke-width="0.25"/><line x2="108.924" transform="translate(10.456 106.352)" fill="none" stroke="gray" stroke-miterlimit="10" stroke-width="0.25"/><line x2="108.924" transform="translate(10.456 99.262)" fill="none" stroke="gray" stroke-miterlimit="10" stroke-width="0.25"/><line x2="108.924" transform="translate(10.456 92.172)" fill="none" stroke="gray" stroke-miterlimit="10" stroke-width="0.25"/><line x2="115.802" transform="translate(3.577 85.082)" fill="none" stroke="gray" stroke-miterlimit="10" stroke-width="0.25"/><line x2="118.004" transform="translate(1.376 77.992)" fill="none" stroke="gray" stroke-miterlimit="10" stroke-width="0.25"/><line x2="115.802" transform="translate(3.577 70.901)" fill="none" stroke="gray" stroke-miterlimit="10" stroke-width="0.25"/><line x2="118.004" transform="translate(1.376 63.811)" fill="none" stroke="gray" stroke-miterlimit="10" stroke-width="0.25"/><line x2="119.379" transform="translate(0 56.721)" fill="none" stroke="gray" stroke-miterlimit="10" stroke-width="0.25"/><line x2="115.802" transform="translate(3.577 49.631)" fill="none" stroke="gray" stroke-miterlimit="10" stroke-width="0.25"/><line x2="108.924" transform="translate(10.456 42.541)" fill="none" stroke="gray" stroke-miterlimit="10" stroke-width="0.25"/><line x2="108.924" transform="translate(10.456 35.451)" fill="none" stroke="gray" stroke-miterlimit="10" stroke-width="0.25"/><line x2="108.924" transform="translate(10.456 28.361)" fill="none" stroke="gray" stroke-miterlimit="10" stroke-width="0.25"/><line x2="108.924" transform="translate(10.456 21.27)" fill="none" stroke="gray" stroke-miterlimit="10" stroke-width="0.25"/><line x2="108.924" transform="translate(10.456 14.18)" fill="none" stroke="gray" stroke-miterlimit="10" stroke-width="0.25"/><line x2="108.924" transform="translate(10.456 7.09)" fill="none" stroke="gray" stroke-miterlimit="10" stroke-width="0.25"/><line x2="108.924" transform="translate(10.456)" fill="none" stroke="gray" stroke-miterlimit="10" stroke-width="0.25"/></g><path d="M1203.543,582.263" transform="translate(-1094.313 -498.904)" fill="none" stroke="gray" stroke-miterlimit="10" stroke-width="1"/></g><path d="M1187.4,586.572l39.735,57.771a70.161,70.161,0,0,1-61.8,8.782c-36.51-12.106-56.592-52.11-44.486-88.619a70.352,70.352,0,0,1,78.748-46.98Z" transform="translate(-1117.319 -516.462)" fill="none" stroke="gray" stroke-miterlimit="10" stroke-width="1"/></g></g><path d="M1038.474,714.263l12.753-68.947a70.16,70.16,0,0,1,49.91,37.49c17.257,34.377,3.17,76.863-31.207,94.12a70.354,70.354,0,0,1-88.9-22.465Z" transform="translate(44.997 49.275)" fill="none" stroke="gray" stroke-miterlimit="10" stroke-width="1"/><path d="M1188.078,588.44l-66.056-50.023a82.914,82.914,0,0,1,66.056-32.837c45.456,0,82.86,37.4,82.86,82.86a83.141,83.141,0,0,1-70.86,81.986Z" transform="translate(82.618 11.99)" fill="none" stroke="gray" stroke-miterlimit="10" stroke-width="2"/><path d="M969.6,752.119a82.864,82.864,0,0,1-8.894-37.349c0-45.455,37.4-82.859,82.859-82.859a82.882,82.882,0,0,1,56.385,22.143" transform="translate(39.576 45.698)" fill="none" stroke="gray" stroke-miterlimit="10" stroke-width="2"/><line x2="108.478" transform="translate(1164.89 611.264)" fill="none" stroke="gray" stroke-miterlimit="10" stroke-width="0.5" stroke-dasharray="12"/><line x2="92.78" transform="translate(1105.536 598.117)" fill="none" stroke="gray" stroke-miterlimit="10" stroke-width="0.5"/><line x2="105.032" transform="translate(1095.807 582.456)" fill="none" stroke="gray" stroke-miterlimit="10" stroke-width="0.5"/><path d="M1034.722,528.06a59.4,59.4,0,0,1,58.942,14.652" transform="translate(59.324 17.313)" fill="none" stroke="gray" stroke-miterlimit="10" stroke-width="0.75"/><path d="M1097.419,598.983a59.406,59.406,0,0,1-57.159,20.533" transform="translate(60.802 36.912)" fill="none" stroke="gray" stroke-linecap="round" stroke-miterlimit="10" stroke-width="0.75" stroke-dasharray="12"/><path d="M1040.26,627.472l11.321-58.31,45.838,37.778" transform="translate(60.802 28.955)" fill="none" stroke="gray" stroke-miterlimit="10" stroke-width="0.75"/><path d="M832.293,489.377l-9.243,16.01,29.058,16.777a102.136,102.136,0,0,1,9.271-15.994Z" transform="translate(2.845 7.666)" fill="none" stroke="gray" stroke-miterlimit="10" stroke-width="0.75"/><path d="M818.922,514.411l-4.783,17.857,32.4,8.682a101.308,101.308,0,0,1,4.762-17.862Z" transform="translate(0.467 14.346)" fill="none" stroke="gray" stroke-miterlimit="10" stroke-width="0.75"/><path d="M845.931,541.809H812.387v18.485h33.544c-.275-3.048-.438-6.129-.438-9.248S845.656,544.854,845.931,541.809Z" transform="translate(0 21.657)" fill="none" stroke="gray" stroke-miterlimit="10" stroke-width="0.75"/><path d="M814.139,571.532l4.783,17.857,32.384-8.676a101.3,101.3,0,0,1-4.765-17.862Z" transform="translate(0.467 27.271)" fill="gray"/><path d="M823.05,599.73l9.243,16.01,29.093-16.8a102.176,102.176,0,0,1-9.273-15.992Z" transform="translate(2.845 32.634)" fill="gray"/><path d="M862.263,600.733l-23.749,23.749,13.071,13.07L875.334,613.8A103.154,103.154,0,0,1,862.263,600.733Z" transform="translate(6.971 37.379)" fill="gray"/><path d="M1058.866,575.735a105.146,105.146,0,0,1-202.5-18.1" transform="translate(11.735 25.878)" fill="none" stroke="gray" stroke-miterlimit="10" stroke-width="2"/><path d="M856.167,549.624a105.494,105.494,0,0,1,103.9-88.979c57.682,0,105.146,47.464,105.146,105.146" transform="translate(11.682)" fill="none" stroke="gray" stroke-miterlimit="10" stroke-width="2"/><path d="M1019.875,582.8l1.387-15.46-11.482,10.445,10.095,5.015,1.387-15.46-11.482,10.445Z" transform="translate(52.669 28.468)" fill="gray"/><g transform="translate(1044.552 486.937)"><line x2="51.227" transform="translate(0 2.771)" fill="none" stroke="gray" stroke-miterlimit="10" stroke-width="1"/><path d="M1032.723,487l7.944-2.865-7.989-2.739.045,5.6,7.944-2.865-7.989-2.739Z" transform="translate(-985.772 -481.4)" fill="gray"/></g><g transform="translate(1111.516 716.678)"><g transform="translate(0 5.041)"><circle cx="2.783" cy="2.783" r="2.783" transform="translate(0 61.481)" fill="gray"/><g transform="translate(2.783)"><circle cx="4.858" cy="4.858" r="4.858" transform="translate(129.506 36.939)" fill="gray"/><line x1="91.21" y2="0.451" transform="translate(43.153 41.797)" fill="none" stroke="gray" stroke-miterlimit="10" stroke-width="1"/><circle cx="5.067" cy="5.067" r="5.067" transform="translate(33.173 36.888)" fill="gray"/><line x1="33.543" y2="20.243" transform="translate(0 44.02)" fill="none" stroke="gray" stroke-miterlimit="10" stroke-width="1"/><line y1="41.797" x2="38.32" transform="translate(134.363)" fill="none" stroke="gray" stroke-miterlimit="10" stroke-width="1"/></g></g><path d="M1187.842,677.606l4.5-14.854-13.367,7.891,8.863,6.964,4.5-14.854-13.367,7.891Z" transform="translate(-1013.701 -662.751)" fill="gray"/></g><path d="M962.584,727.007l10.055,11.825.6-15.511-10.652,3.685,10.055,11.825.6-15.511Z" transform="translate(40.076 70.088)" fill="gray"/><path d="M852.458,527.317l4.136,14.961,7.078-13.815-11.214-1.147,4.136,14.961,7.078-13.815Z" transform="translate(10.692 17.79)" fill="gray"/><path d="M1017.318,563.635a42.5,42.5,0,0,1,81.842,7.317" transform="translate(54.681 20.004)" fill="none" stroke="gray" stroke-miterlimit="10" stroke-width="0.75"/><path d="M1090.847,574.32a42.636,42.636,0,0,1-41.99,35.961" transform="translate(63.096 30.331)" fill="none" stroke="gray" stroke-miterlimit="10" stroke-width="0.75"/><path d="M1016.816,554.655l-.56,6.248,4.64-4.222-4.08-2.027-.56,6.248,4.64-4.222Z" transform="translate(54.397 25.084)" fill="gray"/><path d="M1084.456,577.035l-1.671-6.047-2.86,5.583,4.532.463-1.671-6.047-2.86,5.583Z" transform="translate(71.385 29.442)" fill="gray"/><g transform="translate(1216.272 545.015)"><path d="M1239.6,588.212a55.172,55.172,0,0,0,.447-6.653c0-.417-.053-.818-.061-1.235l-12.276-2.743a42.385,42.385,0,0,0-1.606-8.252l10.38-7.023a53.857,53.857,0,0,0-3.295-7.206l-12.184,3.281a42.769,42.769,0,0,0-5.2-6.479l5.942-11.048a54.408,54.408,0,0,0-6.3-4.88l-9.259,8.555a41.8,41.8,0,0,0-7.531-3.3l.12-12.548a53.794,53.794,0,0,0-7.857-1.433l-4.229,11.919c-.417-.015-.826-.068-1.243-.068a42.443,42.443,0,0,0-6.909.615L1172.8,528.5a54.229,54.229,0,0,0-7.63,2.4l1.787,12.481a42.2,42.2,0,0,0-6.979,4.258l-10.3-7.259a55.089,55.089,0,0,0-5.63,5.66l7.372,10.207a42.641,42.641,0,0,0-4.258,7.054l-12.5-1.644a54.4,54.4,0,0,0-2.356,7.6l11.267,5.607a42.346,42.346,0,0,0-.576,6.69c0,.546.061,1.077.076,1.614l-11.866,4.373a54.779,54.779,0,0,0,1.471,7.773l12.54-.272a42.334,42.334,0,0,0,3.477,7.7l-8.479,9.388a55.774,55.774,0,0,0,4.918,6.138l10.979-6.062a42.651,42.651,0,0,0,6.721,5.243l-3.137,12.244a54.03,54.03,0,0,0,7.168,3.146l6.911-10.479a42.741,42.741,0,0,0,8.456,1.5l2.9,12.283c.114,0,.213.014.326.014a54.156,54.156,0,0,0,7.479-.575l1.243-12.464a42.479,42.479,0,0,0,8.214-2.63l8.243,9.487a54.487,54.487,0,0,0,6.653-4.122l-4.7-11.638a42.629,42.629,0,0,0,6-6.138l11.714,4.569a54.867,54.867,0,0,0,3.978-6.767l-9.578-8.123a42.043,42.043,0,0,0,2.426-8.161Zm-54.148,23.678a30.328,30.328,0,1,1,30.333-30.332A30.33,30.33,0,0,1,1185.457,611.89Z" transform="translate(-1131.204 -527.245)" fill="url(#b)"/><path d="M30.332,0a30.332,30.332,0,0,1,0,60.663c.2,0,.1,0,0,0A30.332,30.332,0,0,1,30.332,0Z" transform="translate(23.922 23.986)" fill="none" stroke="#1f9e9f" stroke-width="1"/></g><g transform="translate(1151.976 663.18)"><path d="M1141.323,654.757a31.081,31.081,0,0,0,.251-3.736c0-.234-.029-.46-.034-.693l-6.893-1.54a23.934,23.934,0,0,0-.9-4.634l5.829-3.945a30.2,30.2,0,0,0-1.851-4.046L1130.881,638a24.1,24.1,0,0,0-2.919-3.638l3.336-6.2a30.621,30.621,0,0,0-3.536-2.74l-5.2,4.8a23.452,23.452,0,0,0-4.23-1.855l.068-7.046a30.045,30.045,0,0,0-4.414-.8l-2.374,6.693c-.233-.008-.464-.038-.7-.038a23.788,23.788,0,0,0-3.88.345l-3.225-6.294a30.387,30.387,0,0,0-4.284,1.349l1,7.008a23.664,23.664,0,0,0-3.918,2.392l-5.787-4.077a30.956,30.956,0,0,0-3.162,3.178l4.14,5.732a23.841,23.841,0,0,0-2.391,3.961l-7.022-.923a30.784,30.784,0,0,0-1.323,4.268l6.328,3.148a23.7,23.7,0,0,0-.324,3.757c0,.307.034.6.043.907l-6.663,2.455a30.825,30.825,0,0,0,.825,4.365l7.042-.153a23.772,23.772,0,0,0,1.953,4.324l-4.761,5.271a31.277,31.277,0,0,0,2.76,3.447l6.166-3.4a23.914,23.914,0,0,0,3.775,2.944l-1.762,6.876a30.354,30.354,0,0,0,4.026,1.766l3.88-5.884a24.068,24.068,0,0,0,4.749.842l1.629,6.9c.063,0,.119.009.182.009a30.437,30.437,0,0,0,4.2-.323l.7-7a23.8,23.8,0,0,0,4.612-1.477l4.63,5.327a30.5,30.5,0,0,0,3.736-2.314l-2.638-6.536a23.954,23.954,0,0,0,3.37-3.447l6.579,2.567a30.907,30.907,0,0,0,2.234-3.8l-5.379-4.562a23.565,23.565,0,0,0,1.362-4.582Zm-30.408,13.3a17.031,17.031,0,1,1,17.034-17.034A17.032,17.032,0,0,1,1110.916,668.055Z" transform="translate(-1080.45 -620.521)" fill="url(#b)"/></g><line x2="91.211" transform="translate(1004.345 525.318)" fill="none" stroke="gray" stroke-miterlimit="10" stroke-width="1"/><circle cx="5.067" cy="5.067" r="5.067" transform="translate(1095.401 520.568)" fill="none" stroke="gray" stroke-miterlimit="10" stroke-width="1"/><line y1="20.077" x2="33.643" transform="translate(1105.176 503.516)" fill="none" stroke="gray" stroke-miterlimit="10" stroke-width="1"/><circle cx="2.783" cy="2.783" r="2.783" transform="translate(1136.035 500.733)" fill="gray"/><circle cx="2.783" cy="2.783" r="2.783" transform="translate(1153.281 657.614)" fill="gray"/><g transform="translate(941.875 616.315)"><circle cx="2.783" cy="2.783" r="2.783" transform="translate(5.218 180.446)" fill="gray"/><line x1="40.235" y2="81.857" transform="translate(7.518 52.929)" fill="none" stroke="gray" stroke-miterlimit="10" stroke-width="1"/><circle cx="5.067" cy="5.067" r="5.067" transform="translate(0 133.987)" fill="none" stroke="gray" stroke-miterlimit="10" stroke-width="0.573"/><line x2="3.178" y2="39.049" transform="translate(4.823 144.179)" fill="none" stroke="gray" stroke-miterlimit="10" stroke-width="1"/><line x1="20.346" y1="52.929" transform="translate(27.407)" fill="none" stroke="gray" stroke-miterlimit="10" stroke-width="1"/><path d="M955.651,629.157l1.149-4.367-3.207-3.179-4.357,1.188-1.149,4.367,3.207,3.179Z" transform="translate(-905.667 -573.366)" fill="gray"/></g><path d="M1095.7,598.463l3.8-6.582-11.95-6.9a41.962,41.962,0,0,1-3.813,6.576Z" transform="translate(72.403 33.176)" fill="gray"/><path d="M1101.1,587.628l1.968-7.341-13.323-3.57a41.683,41.683,0,0,1-1.96,7.344Z" transform="translate(73.482 30.971)" fill="gray"/><path d="M1089.679,575.666h13.793v-7.6H1089.68c.113,1.252.18,2.517.18,3.8S1089.793,574.412,1089.679,575.666Z" transform="translate(73.988 28.662)" fill="gray"/><path d="M1103.065,564.143,1101.1,556.8l-13.313,3.567a41.712,41.712,0,0,1,1.958,7.344Z" transform="translate(73.483 25.656)" fill="gray"/><path d="M1099.5,553.09l-3.8-6.584-11.96,6.905a41.928,41.928,0,0,1,3.812,6.576Z" transform="translate(72.404 22.91)" fill="gray"/><path d="M1083.25,553.023l9.762-9.762-5.375-5.374-9.761,9.762A42.4,42.4,0,0,1,1083.25,553.023Z" transform="translate(70.839 20.61)" fill="gray"/><g transform="translate(1025.591 704.567)"><path d="M981.159,704.3a58.578,58.578,0,0,0-.474,7.083c0,.443.057.874.067,1.316l13.079,2.928a44.948,44.948,0,0,0,1.713,8.8L984.48,731.9a57.787,57.787,0,0,0,3.514,7.683l12.989-3.5a45.375,45.375,0,0,0,5.533,6.9l-6.324,11.774a58.374,58.374,0,0,0,6.709,5.208l9.862-9.124a44.991,44.991,0,0,0,8.029,3.527l-.128,13.373a57.641,57.641,0,0,0,8.376,1.525l4.507-12.7c.445.013.878.067,1.325.067a45.31,45.31,0,0,0,7.359-.651l6.125,11.947a57.691,57.691,0,0,0,8.129-2.56l-1.905-13.3a45.28,45.28,0,0,0,7.439-4.544L1077,755.264a58.512,58.512,0,0,0,6.006-6.03l-7.859-10.878a45.261,45.261,0,0,0,4.536-7.516l13.329,1.747a57.606,57.606,0,0,0,2.507-8.1l-12.008-5.977a45.358,45.358,0,0,0,.616-7.136c0-.581-.065-1.145-.086-1.72L1096.7,705a57.972,57.972,0,0,0-1.571-8.281l-13.364.286a44.9,44.9,0,0,0-3.7-8.2l9.032-10a58.338,58.338,0,0,0-5.237-6.547l-11.7,6.466a45.337,45.337,0,0,0-7.167-5.593l3.348-13.046a57.9,57.9,0,0,0-7.645-3.355l-7.363,11.171a45.015,45.015,0,0,0-9.015-1.6l-3.094-13.088c-.115,0-.227-.016-.342-.016a58.433,58.433,0,0,0-7.972.608l-1.325,13.286a44.855,44.855,0,0,0-8.759,2.8l-8.783-10.108a58.1,58.1,0,0,0-7.093,4.392l5.012,12.4a45.578,45.578,0,0,0-6.4,6.541l-12.486-4.872a58.074,58.074,0,0,0-4.237,7.215l10.208,8.66a44.887,44.887,0,0,0-2.591,8.692Zm91.657,7.083a33.932,33.932,0,0,1-30.893,33.789V727.244a16.13,16.13,0,0,0,10.8-24.16l12.748-12.748A33.768,33.768,0,0,1,1072.816,711.379Zm-33.942-33.943A33.779,33.779,0,0,1,1061,685.671l-12.638,12.64a16.088,16.088,0,0,0-20.311,1.088l-12.572-12.572A33.8,33.8,0,0,1,1038.874,677.435Zm-27.642,14.29,12.947,12.948a16.134,16.134,0,0,0,11.277,22.5v17.976a33.905,33.905,0,0,1-24.224-53.423Z" transform="translate(-980.685 -653.191)" fill="url(#b)"/></g><g transform="translate(891.648 486.862)"><path d="M1032.38,568.315a75.53,75.53,0,0,0,.481-8.529l-1.472-1.813-15.227-3.409a1.732,1.732,0,0,1-1.338-1.509,61.339,61.339,0,0,0-1.859-9.547,1.723,1.723,0,0,1,.69-1.9l12.856-8.693a1.79,1.79,0,0,0,.666-2.13,78.963,78.963,0,0,0-3.6-7.89,1.792,1.792,0,0,0-2.047-.879l-15.131,4.077a1.729,1.729,0,0,1-1.883-.709,62.072,62.072,0,0,0-5.984-7.469,1.728,1.728,0,0,1-.274-2.008l7.35-13.687a1.787,1.787,0,0,0-.4-2.192,79.521,79.521,0,0,0-6.892-5.359,1.8,1.8,0,0,0-2.226.17l-11.482,10.62a1.722,1.722,0,0,1-2,.247,61.27,61.27,0,0,0-8.666-3.806,1.734,1.734,0,0,1-1.173-1.651l.148-15.555a1.784,1.784,0,0,0-1.361-1.753,78.82,78.82,0,0,0-8.616-1.585,1.8,1.8,0,0,0-1.9,1.187L955.385,498.5c-.605-.018-1.195-.091-1.8-.091a59.817,59.817,0,0,0-8.788.693,1.74,1.74,0,0,1-1.814-.926l-7.125-13.9a1.792,1.792,0,0,0-2.027-.922,78.4,78.4,0,0,0-8.37,2.631,1.79,1.79,0,0,0-1.125,1.927l2.218,15.479a1.73,1.73,0,0,1-.941,1.789,61.6,61.6,0,0,0-8.018,4.9,1.729,1.729,0,0,1-2.016.022l-12.79-9.01a1.79,1.79,0,0,0-2.219.123,79.749,79.749,0,0,0-6.18,6.2,1.792,1.792,0,0,0-.105,2.233l9.139,12.649a1.729,1.729,0,0,1-.005,2.026,61.473,61.473,0,0,0-4.9,8.117,1.732,1.732,0,0,1-1.774.953l-15.531-2.037a1.789,1.789,0,0,0-1.908,1.138,78.6,78.6,0,0,0-2.577,8.317,1.793,1.793,0,0,0,.944,2.028l13.948,6.942a1.744,1.744,0,0,1,.946,1.818,59.487,59.487,0,0,0-.651,8.471c0,.791.089,1.559.119,2.342l-15.905,5.858a1.8,1.8,0,0,0-1.163,1.908,78.517,78.517,0,0,0,1.621,8.489,1.784,1.784,0,0,0,1.771,1.348l15.533-.333a1.73,1.73,0,0,1,1.665,1.16,61.158,61.158,0,0,0,4.025,8.91,1.728,1.728,0,0,1-.223,2L888.841,603.4a1.8,1.8,0,0,0-.142,2.232,79.335,79.335,0,0,0,5.371,6.691,1.783,1.783,0,0,0,2.192.37l13.606-7.517a1.723,1.723,0,0,1,2.01.251,61.939,61.939,0,0,0,7.806,6.09,1.725,1.725,0,0,1,.736,1.876l-3.9,15.192a1.792,1.792,0,0,0,.908,2.04,79.08,79.08,0,0,0,7.82,3.418,1.79,1.79,0,0,0,2.116-.692l8.561-12.992a1.721,1.721,0,0,1,1.89-.713,61.343,61.343,0,0,0,9.833,1.747,1.734,1.734,0,0,1,1.536,1.32l3.6,15.225,1.794,1.407a78.31,78.31,0,0,0,8.464-.637,1.782,1.782,0,0,0,1.542-1.592l1.54-15.453a1.725,1.725,0,0,1,1.345-1.51,61.15,61.15,0,0,0,9.562-3.063,1.723,1.723,0,0,1,1.971.457L989.21,629.3a1.794,1.794,0,0,0,2.2.405,78.946,78.946,0,0,0,7.242-4.491,1.788,1.788,0,0,0,.626-2.133l-5.831-14.433a1.725,1.725,0,0,1,.481-1.956,61.972,61.972,0,0,0,6.975-7.136,1.728,1.728,0,0,1,1.961-.516l14.51,5.663a1.792,1.792,0,0,0,2.137-.664,79.37,79.37,0,0,0,4.329-7.382,1.791,1.791,0,0,0-.437-2.179l-11.884-10.081a1.722,1.722,0,0,1-.485-1.951,61.171,61.171,0,0,0,2.82-9.459,1.733,1.733,0,0,1,1.5-1.375l15.448-1.727A1.78,1.78,0,0,0,1032.38,568.315Z" transform="translate(-874.953 -481.34)" fill="url(#b)"/><circle cx="44.045" cy="44.045" r="44.045" transform="translate(34.582 34.69)" fill="url(#b)"/><circle cx="44.045" cy="44.045" r="44.045" transform="translate(34.909 34.959)" fill="url(#g)"/></g><g transform="translate(1247.189 576.156)"><path d="M1203.107,578.069a23.039,23.039,0,0,0,.146-2.574l-.445-.547-4.595-1.029a.52.52,0,0,1-.4-.455,18.665,18.665,0,0,0-.561-2.881.518.518,0,0,1,.209-.574l3.878-2.624a.539.539,0,0,0,.2-.642,24.035,24.035,0,0,0-1.086-2.38.539.539,0,0,0-.618-.265l-4.564,1.23a.523.523,0,0,1-.569-.214,18.543,18.543,0,0,0-1.805-2.254.52.52,0,0,1-.082-.605l2.217-4.13a.538.538,0,0,0-.119-.661,23.806,23.806,0,0,0-2.079-1.616.54.54,0,0,0-.671.051l-3.465,3.2a.519.519,0,0,1-.6.075,18.387,18.387,0,0,0-2.615-1.148.522.522,0,0,1-.354-.5l.044-4.694a.539.539,0,0,0-.41-.53,24.034,24.034,0,0,0-2.6-.478.545.545,0,0,0-.574.358l-1.709,4.816c-.182-.006-.36-.028-.545-.028a18.09,18.09,0,0,0-2.65.209.524.524,0,0,1-.547-.28l-2.15-4.192a.541.541,0,0,0-.612-.279,23.9,23.9,0,0,0-2.526.794.54.54,0,0,0-.338.581l.669,4.67a.525.525,0,0,1-.284.541,18.646,18.646,0,0,0-2.42,1.477.521.521,0,0,1-.608.006l-3.859-2.719a.542.542,0,0,0-.67.038,23.823,23.823,0,0,0-1.865,1.871.539.539,0,0,0-.031.673l2.757,3.817a.521.521,0,0,1,0,.612,18.538,18.538,0,0,0-1.477,2.449.524.524,0,0,1-.536.288l-4.686-.614a.539.539,0,0,0-.575.342,23.756,23.756,0,0,0-.778,2.51.54.54,0,0,0,.285.612l4.208,2.1a.525.525,0,0,1,.285.549,18.085,18.085,0,0,0-.2,2.555c0,.238.026.47.035.707l-4.8,1.767a.543.543,0,0,0-.351.575,23.661,23.661,0,0,0,.489,2.561.536.536,0,0,0,.535.407l4.686-.1a.52.52,0,0,1,.5.35,18.448,18.448,0,0,0,1.215,2.688.522.522,0,0,1-.067.6l-3.173,3.514a.54.54,0,0,0-.043.673,23.65,23.65,0,0,0,1.62,2.019.537.537,0,0,0,.661.112l4.106-2.268a.52.52,0,0,1,.607.076,18.74,18.74,0,0,0,2.355,1.837.521.521,0,0,1,.222.566l-1.177,4.583a.541.541,0,0,0,.275.616,24.041,24.041,0,0,0,2.359,1.031.541.541,0,0,0,.638-.209l2.583-3.92a.518.518,0,0,1,.57-.215,18.626,18.626,0,0,0,2.967.527.523.523,0,0,1,.464.4l1.086,4.594.541.424a23.593,23.593,0,0,0,2.554-.193.537.537,0,0,0,.465-.48l.465-4.662a.521.521,0,0,1,.405-.456,18.372,18.372,0,0,0,2.886-.924.519.519,0,0,1,.594.138l3.08,3.545a.544.544,0,0,0,.665.122,24.154,24.154,0,0,0,2.185-1.355.537.537,0,0,0,.189-.642l-1.76-4.355a.519.519,0,0,1,.146-.59,18.76,18.76,0,0,0,2.1-2.152.519.519,0,0,1,.592-.156l4.378,1.708a.54.54,0,0,0,.645-.2,24.069,24.069,0,0,0,1.306-2.227.542.542,0,0,0-.132-.658l-3.586-3.042a.518.518,0,0,1-.146-.589,18.436,18.436,0,0,0,.85-2.853.523.523,0,0,1,.452-.416l4.661-.521A.539.539,0,0,0,1203.107,578.069Z" transform="translate(-1155.609 -551.827)" fill="url(#b)"/><circle cx="13.289" cy="13.289" r="13.289" transform="translate(10.434 10.466)" fill="url(#b)"/><circle cx="13.289" cy="13.289" r="13.289" transform="translate(10.532 10.548)" fill="url(#g)"/></g><circle cx="15.139" cy="15.139" r="15.139" transform="translate(1068.504 747.468)" fill="url(#k)"/><g transform="translate(1078.387 564.531)"><path d="M1022.635,572.223a33.911,33.911,0,0,0-.274,4.1c0,.257.032.507.038.763l7.568,1.694a26.027,26.027,0,0,0,.992,5.091l-6.4,4.329a33.63,33.63,0,0,0,2.033,4.447l7.516-2.024a26.338,26.338,0,0,0,3.2,3.994l-3.66,6.813a33.772,33.772,0,0,0,3.883,3.014l5.707-5.28a25.983,25.983,0,0,0,4.646,2.041l-.074,7.739a33.415,33.415,0,0,0,4.847.882l2.608-7.35c.257.008.508.038.766.038a26.215,26.215,0,0,0,4.259-.376l3.545,6.914a33.453,33.453,0,0,0,4.7-1.482l-1.1-7.7a26.125,26.125,0,0,0,4.3-2.629l6.356,4.477a33.97,33.97,0,0,0,3.475-3.49l-4.548-6.295a26.143,26.143,0,0,0,2.625-4.349l7.714,1.011a33.331,33.331,0,0,0,1.451-4.683l-6.948-3.46a26.261,26.261,0,0,0,.356-4.13c0-.336-.038-.661-.049-.995l7.32-2.7a33.46,33.46,0,0,0-.908-4.792l-7.733.166a26.118,26.118,0,0,0-2.144-4.747l5.227-5.787a33.721,33.721,0,0,0-3.03-3.789l-6.772,3.742a26.276,26.276,0,0,0-4.146-3.237l1.937-7.549a33.451,33.451,0,0,0-4.424-1.941l-4.26,6.464a25.975,25.975,0,0,0-5.217-.927l-1.79-7.573c-.067,0-.132-.01-.2-.01a33.763,33.763,0,0,0-4.612.352l-.766,7.688a26.082,26.082,0,0,0-5.068,1.621l-5.083-5.849a33.547,33.547,0,0,0-4.1,2.543l2.9,7.177a26.34,26.34,0,0,0-3.7,3.785l-7.225-2.82a33.729,33.729,0,0,0-2.453,4.174l5.907,5.012a26.024,26.024,0,0,0-1.5,5.031Zm53.039,4.1a19.638,19.638,0,0,1-17.877,19.553V585.5a9.335,9.335,0,0,0,6.253-13.981l7.377-7.377A19.538,19.538,0,0,1,1075.674,576.321Zm-19.642-19.641a19.545,19.545,0,0,1,12.8,4.766l-7.313,7.315a9.307,9.307,0,0,0-11.754.63l-7.274-7.275A19.557,19.557,0,0,1,1056.032,556.68Zm-15.995,8.269,7.492,7.493a9.335,9.335,0,0,0,6.525,13.019v10.4a19.619,19.619,0,0,1-14.017-30.914Z" transform="translate(-1022.361 -542.65)" fill="url(#b)"/></g><circle cx="8.76" cy="8.76" r="8.76" transform="translate(1103.219 589.357)" fill="url(#k)"/><circle cx="16.862" cy="16.862" r="16.862" transform="translate(1165.58 676.806)" fill="none" stroke="#22acaf" stroke-miterlimit="10" stroke-width="1"/></g></svg>