<svg xmlns="http://www.w3.org/2000/svg" width="463.407" height="438.767" viewBox="0 0 463.407 438.767"><g transform="translate(-542.631 -124.446)"><path d="M542.631,406.207l5.325,3.074,5.551-3.086-5.438-3.116Z" fill="#2ce0e5"/><path d="M634.174,318.516v87.7l75.951,43.9V362.366Z" fill="#0e7774"/><path d="M634.174,318.516l75.745-43.779,76.157,43.779-75.951,43.85Z" fill="#25bbbf"/><path d="M786.076,318.516l-.165,87.843-75.786,43.755V362.366Z" fill="#299b98"/><path d="M742.558,293.5l-53.244,31.568L667.16,337.773l-.665,87.389-42.6,25L547.9,406.038l86.27-49.664" fill="none" stroke="#2ce0e5" stroke-miterlimit="10" stroke-width="1"/><line x1="0.206" y1="37.487" transform="translate(753.344 387.556)" fill="none" stroke="#25bbbf" stroke-miterlimit="10" stroke-width="1"/><path d="M749.586,389.9l8.471-4.887-4.61-6.858Z" fill="#25bbbf"/><ellipse cx="3.962" cy="3.313" rx="3.962" ry="3.313" transform="translate(717.06 302.979)" fill="#2ce0e5"/><path d="M720.981,306.292,764.2,331.146v37.606l21.806-12.59" fill="none" stroke="#2ce0e5" stroke-miterlimit="10" stroke-width="1"/><line x1="32.671" y1="18.981" transform="translate(666.496 299.57)" fill="none" stroke="#2ce0e5" stroke-miterlimit="10" stroke-width="1"/><path d="M693.872,318.578l5.325,3.074,5.551-3.086-5.438-3.116Z" fill="#2ce0e5"/><path d="M721.434,268.478v87.7l75.951,43.9V312.328Z" fill="#1d181a"/><path d="M721.434,268.478,797.179,224.7l76.157,43.779-75.951,43.85Z" fill="#4d4d4d"/><path d="M873.336,268.478l-.165,87.843-75.786,43.755V312.328Z" fill="#231f20"/><path d="M753.755,375.124l.665-87.389,22.154-12.706,53.244-31.568" fill="none" stroke="#25bbbf" stroke-miterlimit="10" stroke-width="1"/><line x1="0.206" y1="37.487" transform="translate(840.603 337.518)" fill="none" stroke="#25bbbf" stroke-miterlimit="10" stroke-width="1"/><path d="M836.845,339.862l8.471-4.887-4.61-6.858Z" fill="#25bbbf"/><path d="M732.455,262.306l75.786,43.755v87.748" fill="none" stroke="#25bbbf" stroke-miterlimit="10" stroke-width="1"/><ellipse cx="5.619" cy="4.698" rx="5.619" ry="4.698" transform="translate(760.207 276.875)" fill="#25bbbf"/><ellipse cx="3.962" cy="3.313" rx="3.962" ry="3.313" transform="translate(804.32 252.942)" fill="#25bbbf"/><path d="M808.241,256.254l43.218,24.855v37.606l21.806-12.59" fill="none" stroke="#25bbbf" stroke-miterlimit="10" stroke-width="1"/><line x1="32.671" y1="18.981" transform="translate(753.755 249.533)" fill="none" stroke="#25bbbf" stroke-miterlimit="10" stroke-width="1"/><path d="M781.132,268.541l5.325,3.074,5.551-3.086-5.438-3.116Z" fill="#25bbbf"/><ellipse cx="2.532" cy="2.117" rx="2.532" ry="2.117" transform="translate(1000.975 366.681)" fill="#2ce0e5"/><path d="M960.185,393.408l43.321-24.774-54.75-31.067" fill="none" stroke="#2ce0e5" stroke-miterlimit="10" stroke-width="1"/><path d="M808.076,318.56v87.7l75.951,43.9V362.411Z" fill="#0e7774"/><path d="M808.076,318.56l75.745-43.779,76.157,43.779-75.951,43.85Z" fill="#25bbbf"/><path d="M959.978,318.56l-.165,87.843-75.786,43.755V362.411Z" fill="#299b98"/><path d="M840.4,425.207l.665-87.389,22.154-12.706,53.244-31.568" fill="none" stroke="#2ce0e5" stroke-miterlimit="10" stroke-width="1"/><path d="M927.451,425.088l-.206-37.487,34.073-20.036" fill="none" stroke="#2ce0e5" stroke-miterlimit="10" stroke-width="1"/><path d="M819.1,312.388l75.786,43.755v87.748l65.714,37.5-141.54,81.243L710.7,500.077" fill="none" stroke="#2ce0e5" stroke-miterlimit="10" stroke-width="1"/><ellipse cx="5.619" cy="4.698" rx="5.619" ry="4.698" transform="translate(846.849 326.957)" fill="#2ce0e5"/><ellipse cx="3.962" cy="3.313" rx="3.962" ry="3.313" transform="translate(890.962 303.024)" fill="#2ce0e5"/><path d="M894.883,306.336,938.1,331.191V368.8l22.915-13.23" fill="none" stroke="#2ce0e5" stroke-miterlimit="10" stroke-width="1"/><line x1="32.671" y1="18.981" transform="translate(840.397 299.615)" fill="none" stroke="#25bbbf" stroke-miterlimit="10" stroke-width="1"/><path d="M867.774,318.623,873.1,321.7l5.551-3.086-5.438-3.116Z" fill="#2ce0e5"/><path d="M721.125,168.224v87.7l75.951,43.9V212.075Z" fill="#0e7774"/><path d="M721.125,168.224l75.745-43.779,76.157,43.779-75.951,43.85Z" fill="#25bbbf"/><path d="M873.027,168.224l-.165,87.843-75.786,43.755V212.075Z" fill="#299b98"/><path d="M753.447,274.871l.665-87.389,22.154-12.706,53.553-31.751" fill="none" stroke="#2ce0e5" stroke-miterlimit="10" stroke-width="1"/><line x1="0.206" y1="37.487" transform="translate(840.294 237.264)" fill="none" stroke="#2ce0e5" stroke-miterlimit="10" stroke-width="1"/><path d="M836.536,239.608l8.471-4.887-4.61-6.858Z" fill="#2ce0e5"/><ellipse cx="3.962" cy="3.313" rx="3.962" ry="3.313" transform="translate(804.011 152.688)" fill="#2ce0e5"/><path d="M807.932,156l43.218,24.855v37.606l21.806-12.59" fill="none" stroke="#2ce0e5" stroke-miterlimit="10" stroke-width="1"/><path d="M807.767,218.307v87.7l75.951,43.9V262.157Z" fill="#0e7774"/><path d="M807.767,218.307l75.745-43.779,76.157,43.779-75.951,43.85Z" fill="#25bbbf"/><path d="M959.669,218.307,959.5,306.15,883.718,349.9V262.157Z" fill="#299b98"/><path d="M862.658,224.424l-22.4,12.848-.667,87.677,1,.008.663-87.1,21.911-12.566,53.5-31.717-.988-.577Z" fill="#2ce0e5"/><path d="M927.142,324.834l-.206-87.521-76.171-44.4" fill="none" stroke="#2ce0e5" stroke-miterlimit="10" stroke-width="1"/><path d="M819.125,211.751l-.99.584,75.939,43.843v87.459h1V255.6Z" fill="#2ce0e5"/><ellipse cx="2.249" cy="1.88" rx="2.249" ry="1.88" transform="translate(849.91 229.52)" fill="#2ce0e5"/><ellipse cx="3.962" cy="3.313" rx="3.962" ry="3.313" transform="translate(890.653 202.77)" fill="#25bbbf"/><path d="M894.574,206.083l43.218,24.855-.051,37.577-54.023,30.957" fill="none" stroke="#2ce0e5" stroke-miterlimit="10" stroke-width="1"/><path d="M840.089,199.361" fill="none" stroke="#2ce0e5" stroke-miterlimit="10" stroke-width="1"/><path d="M872.759,218.342" fill="none" stroke="#2ce0e5" stroke-miterlimit="10" stroke-width="1"/><path d="M933.045,466.941l8.374,5.051,3.773-7.352Z" fill="#2ce0e5"/><ellipse cx="2.532" cy="2.117" rx="2.532" ry="2.117" transform="translate(708.172 497.961)" fill="#2ce0e5"/><path d="M720.817,368.6v87.7l75.951,43.9V412.448Z" fill="#0e7774"/><path d="M720.817,368.6l75.745-43.779L872.719,368.6l-75.951,43.85Z" fill="#25bbbf"/><path d="M872.719,368.6l-.165,87.843L796.768,500.2V412.448Z" fill="#299b98"/><path d="M829.2,343.582l-53.244,31.568L753.8,387.855l-.665,87.389L710.7,500.077" fill="none" stroke="#2ce0e5" stroke-miterlimit="10" stroke-width="1"/><path d="M965.85,449.939l5.325,3.074,5.551-3.086-5.438-3.116Z" fill="#2ce0e5"/><path d="M839.986,437.638l.206,37.487,44,24.952,86.848-50.26-43.59-24.729" fill="none" stroke="#2ce0e5" stroke-miterlimit="10" stroke-width="1"/><path d="M836.228,439.982l8.471-4.887-4.61-6.858Z" fill="#2ce0e5"/><path d="M731.837,362.426l75.786,43.755v87.748" fill="none" stroke="#2ce0e5" stroke-miterlimit="10" stroke-width="1"/><ellipse cx="5.619" cy="4.698" rx="5.619" ry="4.698" transform="translate(759.589 376.994)" fill="#2ce0e5"/><ellipse cx="3.962" cy="3.313" rx="3.962" ry="3.313" transform="translate(803.702 353.062)" fill="#2ce0e5"/><path d="M807.624,356.374l43.218,24.855v37.606l21.806-12.59" fill="none" stroke="#2ce0e5" stroke-miterlimit="10" stroke-width="1"/><line x1="32.671" y1="18.981" transform="translate(753.138 349.652)" fill="none" stroke="#2ce0e5" stroke-miterlimit="10" stroke-width="1"/><path d="M780.514,368.661l5.325,3.074,5.551-3.086-5.438-3.116Z" fill="#2ce0e5"/><path d="M633.866,218.262v87.7l75.951,43.9V262.112Z" fill="#0e7774"/><path d="M633.866,218.262l75.745-43.779,76.157,43.779-75.951,43.85Z" fill="#25bbbf"/><path d="M785.768,218.262l-.165,87.843L709.817,349.86V262.112Z" fill="#299b98"/><path d="M742.25,193.246" fill="none" stroke="#25bbbf" stroke-miterlimit="10" stroke-width="1"/><path d="M666.187,324.908l.665-87.389,22.154-12.706" fill="none" stroke="#2ce0e5" stroke-miterlimit="10" stroke-width="1"/><line x1="0.206" y1="37.487" transform="translate(753.035 287.302)" fill="none" stroke="#333" stroke-miterlimit="10" stroke-width="1"/><path d="M749.277,289.646l8.471-4.887-4.61-6.858Z" fill="#25bbbf"/><path d="M683.5,222.654l8.091,5.493,4.163-7.138Z" fill="#2ce0e5"/><path d="M688.613,186.62h0l75.615,43.987V247.33" fill="none" stroke="#2ce0e5" stroke-miterlimit="10" stroke-width="1"/><path d="M720.508,268.344v87.7l75.951,43.9V312.195Z" fill="#0e7774"/><path d="M720.508,268.344l75.745-43.779,76.157,43.779-75.951,43.85Z" fill="#25bbbf"/><path d="M872.41,268.344l-.165,87.843-75.786,43.755V312.195Z" fill="#299b98"/><path d="M752.829,374.991l.665-87.389L775.648,274.9l53.244-31.567" fill="none" stroke="#2ce0e5" stroke-miterlimit="10" stroke-width="1"/><line x1="0.206" y1="37.487" transform="translate(839.677 337.384)" fill="none" stroke="#2ce0e5" stroke-miterlimit="10" stroke-width="1"/><path d="M835.919,339.728l8.471-4.887-4.61-6.858Z" fill="#2ce0e5"/><path d="M731.529,262.172l75.786,43.755v87.748" fill="none" stroke="#2ce0e5" stroke-miterlimit="10" stroke-width="1"/><ellipse cx="3.673" cy="3.07" rx="3.673" ry="3.07" transform="translate(761.227 278.368)" fill="#2ce0e5"/><ellipse cx="2.532" cy="2.117" rx="2.532" ry="2.117" transform="translate(804.824 254.004)" fill="#2ce0e5"/><path d="M807.315,256.12l43.218,24.855v37.606l21.806-12.59" fill="none" stroke="#2ce0e5" stroke-miterlimit="10" stroke-width="1"/><line x1="32.671" y1="18.981" transform="translate(752.829 249.399)" fill="none" stroke="#2ce0e5" stroke-miterlimit="10" stroke-width="1"/><path d="M780.206,268.407l5.325,3.074,5.551-3.086-5.438-3.116Z" fill="#2ce0e5"/></g></svg>