<svg xmlns="http://www.w3.org/2000/svg" width="18" height="14.63" viewBox="0 0 18 14.63"><path d="M17.965,3.988a7.5,7.5,0,0,1-2.119.581,3.718,3.718,0,0,0,1.622-2.042,7.622,7.622,0,0,1-2.345.888A3.689,3.689,0,0,0,8.74,5.934a3.776,3.776,0,0,0,.1.843A10.451,10.451,0,0,1,1.23,2.932a3.616,3.616,0,0,0-.5,1.856A3.69,3.69,0,0,0,2.371,7.86,3.678,3.678,0,0,1,.7,7.4v.046a3.692,3.692,0,0,0,2.959,3.62A3.724,3.724,0,0,1,2,11.128a3.7,3.7,0,0,0,3.453,2.563A7.4,7.4,0,0,1,.877,15.269,7.832,7.832,0,0,1,0,15.219a10.5,10.5,0,0,0,5.668,1.657,10.423,10.423,0,0,0,10.5-10.489c0-.157,0-.315-.011-.472A7.452,7.452,0,0,0,18,4l-.035-.015Z" transform="translate(0 -2.246)" fill="#e6e6e6"/></svg>