<?xml version="1.0" encoding="UTF-8" standalone="no"?>
<svg
   xmlns:dc="http://purl.org/dc/elements/1.1/"
   xmlns:cc="http://creativecommons.org/ns#"
   xmlns:rdf="http://www.w3.org/1999/02/22-rdf-syntax-ns#"
   xmlns:svg="http://www.w3.org/2000/svg"
   xmlns="http://www.w3.org/2000/svg"
   id="svg19"
   version="1.2"
   viewBox="0 0 84.160001 62.16"
   height="62.16pt"
   width="84.160004pt">
  <metadata
     id="metadata23">
    <rdf:RDF>
      <cc:Work
         rdf:about="">
        <dc:format>image/svg+xml</dc:format>
        <dc:type
           rdf:resource="http://purl.org/dc/dcmitype/StillImage" />
        <dc:title></dc:title>
      </cc:Work>
    </rdf:RDF>
  </metadata>
  <defs
     id="defs8">
    <clipPath
       id="clip1">
      <path
         id="path2"
         d="M 1,0 H 84 V 61.332031 H 1 Z m 0,0" />
    </clipPath>
    <clipPath
       id="clip2">
      <path
         id="path5"
         d="M 101,23 H 210.33203 V 40 H 101 Z m 0,0" />
    </clipPath>
  </defs>
  <g
     id="surface1">
    <g
       style="clip-rule:nonzero"
       id="g12"
       clip-path="url(#clip1)">
      <path
         id="path10"
         d="m 42.367188,0.0898438 h 0.09766 c 2.792968,0.0312502 5.5625,0.8945312 7.929687,2.3984372 6.453125,4.101563 9.667969,12.09375 9.738281,19.941407 0,0.09375 0,0.183593 -0.0039,0.277343 h 0.03906 C 60.15625,31 58.164062,39.410156 53.964844,46.464844 c -1.207032,-0.0039 -2.40625,-0.25 -3.535156,-0.742188 -2.550782,-1.109375 -4.792969,-3.207031 -6.621094,-6.046875 0.523437,-0.921875 0.992187,-1.882812 1.410156,-2.855469 1.835938,-4.273437 2.710938,-8.949218 2.777344,-13.59375 -0.01172,-0.08984 -0.01953,-0.183593 -0.02344,-0.277343 l -0.0039,-0.234375 C 47.964844,20.890625 47.6875,19.046875 47.058594,17.328125 46.339844,15.351562 45.1875,13.371094 43.363281,12.597656 43.042969,12.460938 42.703125,12.402344 42.367188,12.40625 h -0.03125 C 42,12.40235 41.660156,12.46094 41.339844,12.597656 c -1.824219,0.773438 -2.976563,2.753906 -3.699219,4.730469 -0.625,1.71875 -0.902344,3.5625 -0.90625,5.386719 l -0.0039,0.234375 c -0.0078,0.09375 -0.01563,0.1875 -0.02344,0.277343 0.06641,4.644532 0.941407,9.320313 2.777344,13.59375 2.058594,4.785157 5.328125,9.183594 9.945313,11.195313 3.480468,1.519531 7.34375,1.160156 10.5,-0.628906 3.917968,-2.21875 6.746093,-6.144531 8.597656,-10.359375 3.84375,-8.757813 3.9375,-19.4375 0.101562,-28.425782 3.738282,-1.9375 3.730469,-5.800781 3.730469,-5.800781 0,0 3.503906,2.511719 7.441406,0.933594 5.246094,12.289063 5.117188,26.757813 -0.410156,38.859375 -3.234375,7.074219 -8.484375,13.273438 -15.355469,16.460938 -6.117187,2.839843 -13.308594,2.910156 -19.429687,0.246093 -5.5,-2.398437 -9.972657,-6.71875 -13.191407,-11.738281 C 26.75391,40.285156 24.546879,31.433594 24.53516,22.707031 h 0.03516 c 0,-0.09375 -0.0039,-0.183593 0,-0.277343 C 24.64063,14.582031 27.855477,6.589844 34.304696,2.488281 36.675789,0.984375 39.44532,0.121094 42.238289,0.0898438 Z M 39.660156,59.484375 C 33.636719,61.960938 26.640625,61.828125 20.667969,59.054688 13.796875,55.867188 8.546875,49.667969 5.3125,42.59375 -0.214844,30.492188 -0.34375,16.023438 4.902344,3.734375 8.839844,5.3125 12.34375,2.800781 12.34375,2.800781 c 0,0 -0.0078,3.863281 3.730469,5.800781 -3.835938,8.988282 -3.746094,19.667969 0.101562,28.425782 1.851563,4.214844 4.675781,8.140625 8.597657,10.359375 1.398437,0.792969 2.9375,1.304687 4.515624,1.496093 0.0078,0.0078 0.01172,0.01953 0.01953,0.02734 2.792968,4.359375 6.308594,7.988282 10.351562,10.574219 z m 0,0"
         style="fill:#ffffff;fill-opacity:1;fill-rule:nonzero;stroke:none" />
    </g>
  </g>
</svg>
